<?xml version="1.0" encoding="UTF-8" standalone="no"?>
<!-- Created with Inkscape (http://www.inkscape.org/) -->

<svg
   width="512"
   height="512"
   viewBox="0 0 512 512"
   version="1.1"
   id="svg5"
   xml:space="preserve"
   inkscape:version="1.2 (dc2aedaf03, 2022-05-15)"
   sodipodi:docname="icon-headline.svg"
   xmlns:inkscape="http://www.inkscape.org/namespaces/inkscape"
   xmlns:sodipodi="http://sodipodi.sourceforge.net/DTD/sodipodi-0.dtd"
   xmlns="http://www.w3.org/2000/svg"
   xmlns:svg="http://www.w3.org/2000/svg"><sodipodi:namedview
     id="namedview7"
     pagecolor="#ffffff"
     bordercolor="#000000"
     borderopacity="0.25"
     inkscape:showpageshadow="2"
     inkscape:pageopacity="0.0"
     inkscape:pagecheckerboard="0"
     inkscape:deskcolor="#d1d1d1"
     inkscape:document-units="px"
     showgrid="false"
     inkscape:zoom="1.6421381"
     inkscape:cx="263.37615"
     inkscape:cy="273.42403"
     inkscape:window-width="1920"
     inkscape:window-height="1017"
     inkscape:window-x="-8"
     inkscape:window-y="-8"
     inkscape:window-maximized="1"
     inkscape:current-layer="layer1" /><defs
     id="defs2" /><g
     inkscape:label="Layer 1"
     inkscape:groupmode="layer"
     id="layer1"><path
       id="path194"
       style="display:inline;stroke-width:6.20017"
       inkscape:label="path194"
       d="M 412.97266 22.619141 C 412.73145 22.621744 412.48955 22.62721 412.24805 22.636719 L 399.06055 23.119141 L 399.06055 23.091797 C 396.39985 23.193052 393.97048 24.740054 392.58203 27.224609 L 389.62109 32.548828 L 389.59766 32.548828 C 388.27886 34.932008 386.01012 36.453441 383.46484 36.681641 L 371.45898 37.695312 C 369.19169 37.872497 367.15534 39.192571 365.88281 41.271484 L 358.31641 53.667969 L 358.31641 53.642578 C 356.46549 56.684913 353.48032 58.63723 350.17188 58.992188 L 350.05664 59.017578 C 348.1363 59.22008 346.51817 60.66513 345.96289 62.693359 L 345.9375 62.820312 C 345.40563 64.772467 343.78646 66.117196 341.93555 66.142578 L 340.54688 66.167969 C 339.04296 66.193849 337.58577 66.853363 336.52148 68.044922 L 333.49023 71.390625 C 328.70104 76.689391 325.3932 83.357184 323.93555 90.632812 L 323.05664 95.044922 C 322.57097 97.453408 320.62736 99.152344 318.40625 99.152344 C 316.83301 99.152344 315.37529 99.988451 314.49609 101.38281 L 310.88672 106.98633 L 310.88672 107.01172 C 308.82755 110.2569 305.42533 112.18359 301.81641 112.18359 C 296.91151 112.18359 292.58529 115.68171 291.17383 120.82812 L 282.91406 150.87109 L 282.91406 150.89844 C 282.26622 153.25626 279.99931 154.59861 277.84766 153.93945 L 267.18164 150.69531 L 267.18164 150.7207 C 264.26644 149.83335 261.16685 150.39135 258.66797 152.26758 C 256.56253 153.83947 253.99424 154.49942 251.47266 154.11914 L 242.8418 152.80078 C 241.45357 152.57232 240.34296 151.38046 240.13477 149.85938 L 240.11133 149.75781 L 240.13477 149.75781 C 239.99619 148.84512 239.53396 148.03443 238.83984 147.52734 C 238.14573 146.99512 237.28991 146.81656 236.45703 147.01953 L 236.17969 147.0957 L 236.17969 147.07031 C 232.8712 147.83089 229.40102 146.96942 226.7168 144.6875 C 224.42627 142.73531 221.55599 140.32509 219.12695 138.24609 C 215.74907 135.35594 211.42317 134.13979 207.18945 134.90039 L 207.00391 134.92578 C 201.52057 135.86385 196.94101 139.97163 194.97461 145.65039 L 188.63477 164.10742 L 188.63477 164.13281 C 187.68615 166.87097 185.32634 168.69732 182.64258 168.74805 C 180.35208 168.79995 178.22354 170.16735 177.08984 172.37305 L 172.48633 181.19531 C 171.00559 184.03485 168.22866 185.78504 165.2207 185.70898 L 165.10547 185.70898 C 162.9075 185.68308 160.98662 187.28076 160.4082 189.58789 L 160.29297 190.01953 C 159.66829 192.47877 157.63199 194.20322 155.31836 194.25391 L 130.72461 194.83594 C 128.73486 194.86184 127.02312 193.34049 126.69922 191.18555 L 125.51953 183.80664 C 125.20409 181.73648 125.68591 179.61716 126.83789 177.97656 L 129.82227 173.7168 C 132.27466 170.24342 132.46005 165.45209 130.28516 161.75 L 128.45703 158.6582 C 126.81435 155.8948 125.95898 152.64942 125.95898 149.35352 C 125.95898 145.62665 124.84822 142.00123 122.78906 139.03516 L 117.39844 131.20117 C 114.92281 127.62646 111.63823 124.863 107.84375 123.21484 C 107.17279 122.91041 106.40818 123.01246 105.80664 123.46875 C 105.20512 123.925 104.88114 124.68482 104.9043 125.4707 L 108.4668 248.4043 L 108.44336 248.4043 C 108.53586 251.0916 107.26362 253.60187 105.1582 254.99609 L 89.449219 265.26367 C 88.223004 266.04956 87.482422 267.51988 87.482422 269.06641 C 87.482422 270.25798 87.042603 271.42505 86.255859 272.26172 C 85.492338 273.09839 84.429242 273.55467 83.341797 273.5293 C 82.069325 273.4774 80.796821 273.24916 79.59375 272.81836 L 76.724609 271.7793 C 71.796574 270.00458 66.473726 269.85372 61.476562 271.34961 C 57.381407 272.56656 53.102233 272.69181 48.960938 271.72852 L 34.175781 268.25586 C 32.000947 267.74896 30.404736 265.69563 30.289062 263.26172 L 29.917969 255.45312 C 29.870579 254.5405 29.479942 253.6788 28.832031 253.0957 C 28.184186 252.51289 27.327018 252.25801 26.494141 252.38477 C 25.082826 252.58729 23.718617 251.67551 23.255859 250.17969 L 22.792969 248.73438 C 22.098864 246.50334 20.153962 245.03327 18.025391 245.08398 C 15.873717 245.13568 14.023125 246.70644 13.398438 248.96289 L 12.380859 252.79102 C 11.2009 257.2531 8.4481488 261.0305 4.7460938 263.3125 L 2.8027344 264.50391 L 2.8027344 264.5293 C 1.9235359 265.06151 1.2986503 266.02511 1.1367188 267.11523 C 0.97502378 268.20544 1.2741285 269.32152 1.9453125 270.1582 C 10.482592 280.52776 17.494249 292.26655 22.746094 304.96875 L 38.408203 342.87109 L 38.408203 342.89648 C 41.207722 349.66591 44.841624 355.97726 49.191406 361.65625 C 57.797989 372.91307 63.465987 386.47842 65.617188 400.95508 C 65.964267 403.16078 65.802012 405.41541 65.177734 407.54492 L 63.464844 413.45312 C 63.187059 414.41654 62.53963 415.17632 61.683594 415.53125 C 60.827556 415.91161 59.880371 415.86242 59.09375 415.38086 C 58.237711 414.84865 57.218982 414.82297 56.339844 415.25391 C 55.460648 415.71018 54.812046 416.59726 54.626953 417.63672 C 53.817175 421.94666 54.696319 426.40823 57.033203 429.98242 L 62.378906 438.12109 C 63.165527 439.28736 64.34527 440.0491 65.664062 440.20117 C 67.607491 440.42962 69.226698 441.97577 69.689453 444.05469 C 70.846257 449.17592 71.055094 454.4745 70.337891 459.69727 L 69.78125 463.75391 C 69.457265 465.98493 70.199518 468.21513 71.726562 469.73633 C 72.189143 470.1926 72.858792 470.29405 73.414062 470.01562 C 73.992734 469.71128 74.339566 469.0771 74.316406 468.39258 C 74.247106 466.87142 75.17372 465.52873 76.515625 465.14844 L 81.720703 463.67773 L 81.744141 463.67773 C 82.299113 463.52584 82.90053 463.65229 83.363281 464.0332 C 83.82586 464.41355 84.126953 465.02238 84.126953 465.65625 L 84.242188 470.11719 C 84.289553 471.86654 85.469653 473.3129 87.042969 473.56641 L 97.013672 475.08594 C 98.00854 475.2378 98.79643 476.12671 98.912109 477.24219 C 99.120605 479.32111 99.998507 481.2736 101.38672 482.69336 C 104.99604 486.36956 109.57734 488.70032 114.45898 489.30859 C 117.37419 489.68893 120.28911 488.57482 122.37109 486.34375 L 128.94141 479.26953 C 131.5095 476.50606 134.63453 474.50421 138.08203 473.41406 L 143.00977 471.86719 C 145.5085 471.08126 148.1699 471.258 150.55273 472.37305 C 152.35737 473.23502 154.34561 473.56597 156.28906 473.28711 L 166.49219 471.94336 L 166.49219 471.96875 C 168.92155 471.63904 171.21274 470.49926 173.01758 468.67383 L 177.48242 464.18555 C 181.25365 460.38263 186.25236 458.37929 191.38867 458.63281 L 209.91992 459.49414 C 212.88138 459.62072 215.82078 458.86059 218.41211 457.23828 C 221.88259 455.08329 225.97807 454.45073 229.86523 455.46484 L 251.12695 460.96484 L 251.12695 460.93945 C 255.10647 461.97892 259.31686 460.68638 262.20898 457.49219 C 264.47634 455.00762 267.80784 454.06977 270.88477 455.00781 C 275.18806 456.35151 279.81641 454.67766 282.54688 450.79883 C 284.83737 447.55366 288.49185 445.80325 292.2168 446.1582 L 303.39258 447.25 C 305.47486 447.42719 307.53355 446.64057 309.06055 445.06836 C 309.96286 444.10494 311.09631 443.44676 312.3457 443.11719 L 313.87305 442.71094 L 313.87305 442.68555 C 319.05557 441.31646 323.98228 438.85645 328.33203 435.45898 C 352.50938 416.62216 375.13726 395.52809 396.00781 372.43164 C 397.04894 371.26539 398.48415 370.58197 399.96484 370.55664 C 401.39932 370.53074 402.76355 369.89683 403.80469 368.83203 L 427.47461 344.39258 C 429.23301 342.56716 430.25063 340.03088 430.29688 337.34375 C 430.32053 335.34088 430.92203 333.39007 431.98633 331.74219 L 461.16016 287.19531 L 461.13672 287.19531 C 461.80766 286.15582 462.96396 285.62523 464.09766 285.80273 C 465.27764 285.97992 466.4577 285.39683 467.10547 284.30664 L 468.60938 281.84766 C 470.52965 278.67858 473.37693 276.2953 476.68555 275.10352 C 478.65211 274.39367 480.47953 273.27708 482.05273 271.78125 C 490.31228 263.87087 496.51379 253.67822 499.96094 242.26953 L 510.71875 206.77539 C 511.06582 205.65986 510.92633 204.41841 510.34766 203.4043 C 509.74612 202.41558 508.79832 201.75561 507.71094 201.60352 L 488.71484 199.14258 C 486.40128 198.86351 484.22698 200.38641 483.50977 202.82031 L 480.89453 211.87109 C 480.40883 213.51907 479.32119 214.88782 477.88672 215.64844 C 476.4754 216.40904 474.81082 216.48377 473.33008 215.84961 L 461.59961 210.90625 L 461.59961 210.93164 C 456.92607 208.95408 453.43214 204.59375 452.27539 199.24414 C 451.9745 197.84976 450.84054 196.83595 449.54492 196.78516 C 447.92534 196.70916 446.67633 195.23956 446.72266 193.49023 L 446.81445 189.93945 C 446.90695 186.51689 448.27225 183.29756 450.58594 180.99023 C 453.15402 178.45504 454.95916 175.13354 455.72266 171.45703 C 456.7407 166.66539 459.47185 162.50759 463.28906 159.92188 L 465.5332 158.40039 C 466.62059 157.66515 467.96128 157.46327 469.1875 157.86914 C 470.4369 158.24947 471.45453 159.21282 472.00977 160.48047 C 472.9352 162.58476 474.69506 164.13166 476.77734 164.68945 L 481.42773 165.90625 C 482.37633 166.1347 483.37151 165.93109 484.1582 165.34766 C 484.96799 164.73951 485.49955 163.80116 485.61523 162.73633 L 488.99219 135.50781 C 490.56542 122.88224 489.84842 110.05362 486.91016 97.732422 C 486.30862 95.247832 484.9896 93.042529 483.13867 91.470703 C 481.10265 89.772039 479.92383 87.134789 479.92383 84.345703 C 479.92383 81.835776 479.15904 79.401321 477.72461 77.423828 C 475.98937 75.040668 475.22579 71.974061 475.61914 68.931641 C 476.38266 63.100494 476.24384 57.166915 475.17969 51.361328 L 473.0293 39.572266 C 472.40459 36.124283 470.25243 33.234301 467.29102 31.865234 L 464.74609 30.699219 C 460.21137 28.594926 455.2371 27.860375 450.35547 28.519531 L 444.22266 29.355469 C 439.15576 30.040004 433.99636 29.328331 429.25391 27.275391 L 423.5625 24.791016 C 420.4044 23.415613 417.0685 22.681263 413.69531 22.621094 C 413.45437 22.616796 413.21386 22.616537 412.97266 22.619141 z M 128.29102 238.94922 L 134.44336 238.94922 L 134.44336 415.58789 L 319.33203 415.58789 L 319.33203 421.46484 L 128.29102 421.46484 L 128.29102 238.94922 z M 152.33594 238.94922 L 206.01367 238.94922 L 206.01367 270.28906 L 152.33594 270.28906 L 152.33594 238.94922 z M 374.9668 259.34766 C 376.92462 259.38207 378.84898 260.23945 380.29492 261.83984 L 391.58594 274.38867 C 392.39573 275.30132 393.52907 275.83398 394.70898 275.83398 C 396.74499 275.83398 398.50207 277.35487 398.96484 279.53516 L 399.9375 284.15039 C 400.42318 286.40683 399.89103 288.76432 398.50391 290.51367 L 394.36133 295.73633 C 392.97312 297.46028 392.1645 299.64014 392.04883 301.92188 C 391.84034 305.49659 389.98803 308.71752 387.11914 310.41602 L 386.77344 310.61914 L 386.75 310.64453 C 382.40034 313.23055 377.49392 314.44685 372.54297 314.14258 C 369.99794 313.9907 367.50079 314.82673 365.46484 316.5 C 364.05359 317.66622 363.24219 319.46768 363.24219 321.39453 C 363.24219 323.29601 362.40971 325.09547 361.02148 326.26172 L 359.42578 327.58008 L 359.40234 327.58008 C 358.75449 328.13759 358.36104 328.97396 358.33789 329.86133 L 358.31445 330.34375 L 358.33789 330.34375 C 358.31419 331.12969 357.9671 331.86397 357.38867 332.32031 C 356.8337 332.80189 356.09254 332.95518 355.39844 332.77734 C 346.74566 330.36886 339.45806 324.05524 335.33984 315.41016 L 327.38086 298.72852 C 326.96447 297.86653 326.9182 296.87757 327.24219 295.99023 C 327.56617 295.10291 328.21394 294.39217 329.04688 294.08789 C 332.91061 292.56671 336.24225 289.72689 338.5332 286 L 345.21875 275.17578 L 345.24219 275.17578 C 347.30136 271.82924 350.65697 269.67334 354.33594 269.34375 C 356.48761 269.16657 358.43138 267.89933 359.61133 265.92188 C 361.04582 263.53869 363.47536 262.11914 366.06641 262.11914 C 367.24639 262.11914 368.40222 261.83883 369.44336 261.28125 L 371.50195 260.19141 C 372.60383 259.60195 373.79208 259.32701 374.9668 259.34766 z M 152.33594 281.68359 L 256.70898 281.68359 L 256.70898 313.02344 L 152.33594 313.02344 L 152.33594 281.68359 z M 152.33594 324.41992 L 319.33203 324.41992 L 319.33203 355.75781 L 152.33594 355.75781 L 152.33594 324.41992 z M 152.33594 367.1543 L 256.70898 367.1543 L 256.70898 398.49219 L 152.33594 398.49219 L 152.33594 367.1543 z " /><g
       style="display:inline;overflow:hidden;fill:#ff0000"
       id="g2932"
       transform="matrix(0,-2.8489934,-2.9820727,0,361.08135,472.56695)"
       clip-path="none"><g
         transform="translate(-983,-574)"
         id="g2918"
         style="fill:#ff0000" /></g></g></svg>
