<?xml version="1.0" encoding="UTF-8" standalone="no"?>
<!-- Created with Inkscape (http://www.inkscape.org/) -->

<svg
   width="512"
   height="512"
   viewBox="0 0 512 512"
   version="1.1"
   id="svg5"
   xml:space="preserve"
   inkscape:version="1.2 (dc2aedaf03, 2022-05-15)"
   sodipodi:docname="icon-action.svg"
   xmlns:inkscape="http://www.inkscape.org/namespaces/inkscape"
   xmlns:sodipodi="http://sodipodi.sourceforge.net/DTD/sodipodi-0.dtd"
   xmlns="http://www.w3.org/2000/svg"
   xmlns:svg="http://www.w3.org/2000/svg"><sodipodi:namedview
     id="namedview7"
     pagecolor="#ffffff"
     bordercolor="#000000"
     borderopacity="0.25"
     inkscape:showpageshadow="2"
     inkscape:pageopacity="0.0"
     inkscape:pagecheckerboard="0"
     inkscape:deskcolor="#d1d1d1"
     inkscape:document-units="px"
     showgrid="false"
     inkscape:zoom="1.6347656"
     inkscape:cx="178.92473"
     inkscape:cy="256.30585"
     inkscape:window-width="1920"
     inkscape:window-height="1017"
     inkscape:window-x="-8"
     inkscape:window-y="-8"
     inkscape:window-maximized="1"
     inkscape:current-layer="layer1" /><defs
     id="defs2"><style
   type="text/css"
   id="style331">
   <![CDATA[
    .fil3 {fill:none}
    .fil2 {fill:#FEFEFE}
    .fil1 {fill:#B6D3B4}
    .fil0 {fill:#75B37A}
   ]]>
  </style>
   
  
    
    
    
   <clipPath
   clipPathUnits="userSpaceOnUse"
   id="clipPath404"><path
     d="M 383.16002,2.0992086e-5 C 594.77005,2.0992086e-5 766.32008,171.54004 766.32008,383.15998 c 0,211.61003 -171.54002,383.15997 -383.16006,383.15997 C 171.55,766.31995 5.9700596e-5,594.78002 5.9700596e-5,383.15998 5.9700596e-5,171.54996 171.54008,2.0992086e-5 383.16002,2.0992086e-5 Z"
     id="path406"
     style="stroke-width:1" /></clipPath><clipPath
   clipPathUnits="userSpaceOnUse"
   id="clipPath408"><path
     d="M 383.16002,2.0992086e-5 C 594.77005,2.0992086e-5 766.32008,171.54004 766.32008,383.15998 c 0,211.61003 -171.54002,383.15997 -383.16006,383.15997 C 171.55,766.31995 5.9700596e-5,594.78002 5.9700596e-5,383.15998 5.9700596e-5,171.54996 171.54008,2.0992086e-5 383.16002,2.0992086e-5 Z"
     id="path410"
     style="stroke-width:1" /></clipPath><clipPath
   clipPathUnits="userSpaceOnUse"
   id="clipPath412"><path
     d="M 383.16002,2.0992086e-5 C 594.77005,2.0992086e-5 766.32008,171.54004 766.32008,383.15998 c 0,211.61003 -171.54002,383.15997 -383.16006,383.15997 C 171.55,766.31995 5.9700596e-5,594.78002 5.9700596e-5,383.15998 5.9700596e-5,171.54996 171.54008,2.0992086e-5 383.16002,2.0992086e-5 Z"
     id="path414"
     style="stroke-width:1" /></clipPath></defs><g
     inkscape:label="Layer 1"
     inkscape:groupmode="layer"
     id="layer1"
     style="fill:#000000;fill-opacity:1"><g
       id="Layer_x0020_1"
       inkscape:label="Layer 1"
       inkscape:groupmode="layer"
       transform="matrix(0.10587471,0,0,0.10587471,309.94201,325.84643)"
       style="clip-rule:evenodd;fill-rule:evenodd;image-rendering:optimizeQuality;shape-rendering:geometricPrecision;text-rendering:geometricPrecision;fill:#000000;fill-opacity:1">
  <metadata
   id="CorelCorpID_0Corel-Layer" />
  
  <path
   id="_1"
   class="fil1"
   d="M -87.69,586.06 145.36,449.92 c 30.94,-18.07 42.47,-25.57 53.13,-26.79 21.18,-2.42 141.24,32.29 201.74,57.22 13.92,5.74 22.76,10.41 27.19,17 6.76,10.06 3.09,21.75 -9.88,26.1 -21.03,7.06 -72.35,-11.38 -93.7,-15.59 -38.86,-7.66 -45.56,24.09 -14.82,42.47 6.19,3.7 33.24,14.48 60.07,24.32 61.72,22.65 50.18,25.65 107.09,-2.18 43.38,-21.22 102.58,-52.01 122.1,-59.89 34.45,-13.91 45.89,13.07 29.44,33.22 -17.42,21.35 -79.96,55.42 -128.42,80.95 -80.52,42.43 -72.3,35.51 -166.62,9.59 -31.85,-8.75 -64.82,-16.96 -92.63,-23.39 -52.61,-12.17 -40.71,-14.7 -86.64,12.14 L -9.34,720.15 -87.69,586.03 Z"
   style="fill:#000000;fill-opacity:1"
   transform="matrix(7.6270422,0,0,7.6270422,-3079.4953,-3977.9674)"
   clip-path="url(#clipPath412)" /><g
   id="g346"
   style="fill:#000000;fill-opacity:1"
   transform="matrix(7.6270422,0,0,7.6270422,-3079.4953,-3977.9674)"
   clip-path="url(#clipPath408)">
     <path
   class="fil2"
   d="m 652.13,220.27 c -50.86,25 20.49,202.55 -142.89,238.44 -46.56,10.23 -96.9,-6.92 -127.29,-48.27 163.94,8.86 168.16,-67.64 241.48,-171.51 -39.55,26.39 -74.55,118.3 -149.03,140.72 -58.46,17.6 -124.54,10.66 -199.7,-25.49 -0.65,-13.26 11.5,-40.29 19.69,-23.02 3.61,7.59 11.74,17.12 24.17,22.45 22.25,9.53 55.13,9.37 70.24,4.95 73.21,-21.41 99.3,-162.34 263.32,-138.27 z"
   id="path342"
   style="fill:#000000;fill-opacity:1" />
     <path
   class="fil2"
   d="m 360.31,149.98 c -0.85,31.61 101.84,40.52 77.17,130.55 -7.03,25.66 -25.02,47.99 -53.34,52.27 46.92,-78.69 10.22,-100.62 -22.06,-163.8 2.77,26.39 39.1,67.52 30.84,110.14 -6.48,33.44 -27.05,64.29 -64.41,92.04 -6.71,-3.12 -16.91,-16.14 -6.26,-15.7 4.68,0.19 11.5,-1.36 17.36,-6.12 10.48,-8.52 18.94,-24.8 20.67,-33.41 8.42,-41.72 -54.43,-91.18 0.02,-165.96 z"
   id="path344"
   style="fill:#000000;fill-opacity:1" />
    </g><path
   class="fil2"
   d="m 225.57,360.34 c 9.58,-33.95 -19.8,-91.98 -44.42,-105.7 3.4,-0.52 6.08,-1.81 7.73,-3.18 9.47,5.95 18.63,24.37 28.66,29.79 1.09,0.59 2.87,-1.5 1.75,-2.14 -11.79,-6.75 -19.52,-22.35 -29.85,-28.15 0.56,-0.56 0.96,-1.12 1.15,-1.64 h 0.01 c 0.01,-0.03 0.01,-0.06 0.02,-0.09 0.01,-0.03 0.02,-0.06 0.03,-0.09 h -0.01 c 0.11,-0.54 0.07,-1.22 -0.12,-2 11.84,0.46 26.58,-8.79 40.16,-8.38 1.29,0.04 0.86,-2.67 -0.37,-2.74 -11.38,-0.62 -28.82,10.29 -40,10.41 -0.69,-2.03 -2.3,-4.53 -4.93,-6.75 28.16,1.18 83.54,-32.92 93.13,-66.87 3.17,-11.25 2.63,-16.77 -3.42,-18.48 -17.52,-4.94 -77.72,8.05 -86.15,16.51 -3.49,3.51 -5.55,8.56 -5.99,13.69 -3.24,-7.38 -9.59,-13.85 -19.99,-16.79 -24.97,-7.05 -42.75,6.66 -47.55,23.7 -5.2,18.42 8.25,31.52 47.51,42.6 -5.3,0.6 -10.89,1.36 -19.54,-1.08 -14.98,-4.23 -33.08,-12.77 -35.12,-7.07 h -0.01 c -0.01,0.03 -0.01,0.06 -0.02,0.09 -0.01,0.03 -0.02,0.06 -0.03,0.09 h 0.01 c -1.25,5.92 18.66,8.1 33.63,12.33 8.66,2.44 13.02,6 17.22,9.3 -39.27,-11.08 -57.58,-6.95 -62.78,11.47 -4.81,17.04 3.17,38.02 28.14,45.07 10.4,2.93 19.19,0.73 25.82,-3.86 -2.31,4.6 -3.19,9.98 -2.05,14.79 2.76,11.62 47.28,54.18 64.8,59.12 6.05,1.71 9.4,-2.72 12.58,-13.96 z"
   id="path348"
   style="fill:#000000;fill-opacity:1"
   transform="matrix(7.6270422,0,0,7.6270422,-3079.4953,-3977.9674)"
   clip-path="url(#clipPath404)" />
    
   
  
 </g></g></svg>
